<svg width="96" height="20" viewBox="0 0 96 20" fill="none" xmlns="http://www.w3.org/2000/svg">
<path fill-rule="evenodd" clip-rule="evenodd" d="M9.1686 5.4894L10.3138 3.1571C10.4559 2.86788 10.8055 2.74855 11.0947 2.89057C11.3839 3.03259 11.5032 3.38218 11.3612 3.67141L10.4074 5.61383L11.8167 3.93226C12.0237 3.68531 12.3916 3.65289 12.6386 3.85986C12.8855 4.06682 12.918 4.43479 12.711 4.68175L11.3914 6.25628L13.1626 4.95897C13.4225 4.76857 13.7876 4.82494 13.978 5.08488C14.1684 5.34482 14.112 5.70989 13.8521 5.90029L12.1978 7.11195L14.2241 6.27643C14.5219 6.1536 14.863 6.2955 14.9858 6.59338C15.1087 6.89126 14.9668 7.23231 14.6689 7.35515L12.773 8.1369L14.9404 7.80926C15.259 7.7611 15.5563 7.98032 15.6045 8.29891C15.6527 8.61751 15.4334 8.91482 15.1148 8.96298L13.0855 9.26975L15.2703 9.46921C15.5911 9.49851 15.8275 9.78238 15.7982 10.1033C15.7689 10.4241 15.4851 10.6605 15.1642 10.6312L13.1195 10.4445L15.1941 11.1601C15.4987 11.2651 15.6605 11.5972 15.5554 11.9018C15.4504 12.2064 15.1183 12.3682 14.8137 12.2631L12.8748 11.5944L14.7169 12.7834C14.9876 12.9582 15.0654 13.3193 14.8906 13.59C14.7159 13.8607 14.3548 13.9385 14.0841 13.7638L12.3588 12.6501L13.8651 14.2461C14.0863 14.4804 14.0756 14.8496 13.8413 15.0708C13.607 15.292 13.2377 15.2813 13.0166 15.047L11.6084 13.555L12.6893 15.4629C12.8481 15.7433 12.7496 16.0993 12.4692 16.2581C12.1889 16.4169 11.8329 16.3184 11.674 16.0381L10.6628 14.2531L11.2569 16.3639C11.3442 16.674 11.1636 16.9962 10.8534 17.0835C10.5432 17.1708 10.221 16.9902 10.1337 16.68L9.57779 14.7049L9.6508 16.897C9.66153 17.219 9.40917 17.4888 9.08713 17.4995C8.7651 17.5102 8.49535 17.2579 8.48462 16.9358L8.41626 14.8833L7.96336 17.0316C7.89689 17.3469 7.58742 17.5486 7.27214 17.4821C6.95686 17.4156 6.75516 17.1061 6.82163 16.7909L7.24486 14.7834L6.29327 16.7591C6.15345 17.0494 5.80477 17.1713 5.51448 17.0315C5.22418 16.8917 5.1022 16.543 5.24202 16.2527L6.13279 14.4033L4.73636 16.0955C4.53127 16.344 4.16356 16.3792 3.91504 16.1741C3.66652 15.9691 3.63131 15.6013 3.8364 15.3528L5.14207 13.7706L3.38367 15.0792C3.12519 15.2716 2.7597 15.218 2.56733 14.9595C2.37496 14.701 2.42856 14.3355 2.68705 14.1432L4.33306 12.9182L2.31164 13.7698C2.01471 13.8949 1.67258 13.7555 1.54749 13.4586C1.4224 13.1617 1.56171 12.8195 1.85865 12.6945L3.74958 11.8979L1.5837 12.2421C1.26548 12.2927 0.966511 12.0757 0.915931 11.7575C0.865351 11.4393 1.08231 11.1403 1.40053 11.0898L3.42705 10.7677L1.24087 10.5848C0.919784 10.5579 0.681261 10.2759 0.708117 9.95478C0.734974 9.63369 1.01704 9.39517 1.33813 9.42203L3.38322 9.59308L1.30402 8.8936C0.998624 8.79086 0.834342 8.46001 0.937081 8.15461C1.03982 7.84922 1.37068 7.68494 1.67607 7.78768L3.6207 8.44189L1.76931 7.26666C1.49728 7.09398 1.41674 6.73347 1.58942 6.46144C1.7621 6.18941 2.12261 6.10887 2.39464 6.28155L4.1276 7.38159L2.60971 5.79769C2.38677 5.56505 2.39463 5.19574 2.62726 4.9728C2.8599 4.74986 3.22921 4.75772 3.45215 4.99036L4.87267 6.47265L3.77656 4.5717C3.61561 4.29257 3.71142 3.93581 3.99055 3.77486C4.26968 3.61391 4.62644 3.70972 4.78739 3.98885L5.81223 5.7662L5.20194 3.65947C5.11229 3.34998 5.2905 3.02641 5.59999 2.93676C5.90947 2.84711 6.23304 3.02532 6.32269 3.33481L6.89358 5.30552L6.80394 3.11457C6.79077 2.79262 7.04108 2.52096 7.36302 2.50779C7.68496 2.49462 7.95663 2.74493 7.9698 3.06687L8.05365 5.1165L8.48969 2.96752C8.55377 2.65174 8.86169 2.44769 9.17747 2.51177C9.49325 2.57584 9.69729 2.88377 9.63322 3.19954L9.1686 5.4894ZM8.25325 12.9139C9.86199 12.9139 11.1661 11.6098 11.1661 10.001C11.1661 8.3923 9.86199 7.08816 8.25325 7.08816C6.64452 7.08816 5.34038 8.3923 5.34038 10.001C5.34038 11.6098 6.64452 12.9139 8.25325 12.9139Z" fill="#601DED"/>
<path d="M29.0645 15.168C28.1312 15.168 27.3192 14.9627 26.6285 14.552C25.9379 14.132 25.4012 13.5487 25.0185 12.802C24.6359 12.046 24.4445 11.1687 24.4445 10.17C24.4445 9.162 24.6405 8.27533 25.0325 7.51C25.4245 6.73533 25.9892 6.12867 26.7265 5.69C27.4639 5.25133 28.3459 5.032 29.3725 5.032C30.5205 5.032 31.4725 5.30733 32.2285 5.858C32.9939 6.40867 33.4885 7.174 33.7125 8.154H31.5985C31.4585 7.72467 31.1972 7.38867 30.8145 7.146C30.4412 6.894 29.9559 6.768 29.3585 6.768C28.7239 6.768 28.1825 6.908 27.7345 7.188C27.2865 7.468 26.9459 7.86 26.7125 8.364C26.4792 8.868 26.3625 9.47 26.3625 10.17C26.3625 10.8793 26.4792 11.4813 26.7125 11.976C26.9459 12.4707 27.2772 12.8487 27.7065 13.11C28.1452 13.362 28.6585 13.488 29.2465 13.488C30.1052 13.488 30.7539 13.2593 31.1925 12.802C31.6405 12.3353 31.9065 11.7333 31.9905 10.996H29.5825V9.582H33.8945V15H32.1445L32.0045 13.754C31.7992 14.062 31.5565 14.3233 31.2765 14.538C31.0059 14.7433 30.6885 14.8973 30.3245 15C29.9605 15.112 29.5405 15.168 29.0645 15.168ZM38.953 15.168C38.281 15.168 37.6744 15.014 37.133 14.706C36.601 14.3887 36.1764 13.9547 35.859 13.404C35.551 12.844 35.397 12.2047 35.397 11.486C35.397 10.7487 35.551 10.1047 35.859 9.554C36.1764 8.994 36.6057 8.56 37.147 8.252C37.6884 7.93467 38.295 7.776 38.967 7.776C39.6484 7.776 40.255 7.93467 40.787 8.252C41.3284 8.56 41.753 8.994 42.061 9.554C42.3784 10.1047 42.537 10.744 42.537 11.472C42.537 12.2 42.3784 12.844 42.061 13.404C41.753 13.9547 41.3284 14.3887 40.787 14.706C40.2457 15.014 39.6344 15.168 38.953 15.168ZM38.953 13.53C39.2704 13.53 39.5504 13.4553 39.793 13.306C40.045 13.1567 40.241 12.928 40.381 12.62C40.5304 12.312 40.605 11.9293 40.605 11.472C40.605 11.0147 40.5304 10.6367 40.381 10.338C40.241 10.03 40.045 9.80133 39.793 9.652C39.5504 9.49333 39.275 9.414 38.967 9.414C38.6684 9.414 38.393 9.49333 38.141 9.652C37.889 9.80133 37.6884 10.03 37.539 10.338C37.399 10.6367 37.329 11.0147 37.329 11.472C37.329 11.9293 37.399 12.312 37.539 12.62C37.6884 12.928 37.8844 13.1567 38.127 13.306C38.379 13.4553 38.6544 13.53 38.953 13.53ZM46.5459 15.168C45.9579 15.168 45.4726 15.0747 45.0899 14.888C44.7073 14.692 44.4226 14.4353 44.2359 14.118C44.0586 13.7913 43.9699 13.432 43.9699 13.04C43.9699 12.6107 44.0773 12.2327 44.2919 11.906C44.5159 11.5793 44.8473 11.3227 45.2859 11.136C45.7339 10.9493 46.2939 10.856 46.9659 10.856H48.7159C48.7159 10.5107 48.6693 10.226 48.5759 10.002C48.4826 9.76867 48.3379 9.596 48.1419 9.484C47.9459 9.372 47.6846 9.316 47.3579 9.316C47.0033 9.316 46.6999 9.39533 46.4479 9.554C46.2053 9.70333 46.0559 9.93667 45.9999 10.254H44.1659C44.2126 9.75 44.3759 9.316 44.6559 8.952C44.9453 8.57867 45.3233 8.28933 45.7899 8.084C46.2659 7.87867 46.7933 7.776 47.3719 7.776C48.0346 7.776 48.6086 7.888 49.0939 8.112C49.5793 8.336 49.9526 8.658 50.2139 9.078C50.4753 9.498 50.6059 10.016 50.6059 10.632V15H49.0099L48.7999 13.922C48.6973 14.1087 48.5759 14.2767 48.4359 14.426C48.2959 14.5753 48.1326 14.706 47.9459 14.818C47.7593 14.93 47.5493 15.014 47.3159 15.07C47.0826 15.1353 46.8259 15.168 46.5459 15.168ZM46.9939 13.712C47.2366 13.712 47.4513 13.67 47.6379 13.586C47.8339 13.4927 48.0019 13.3713 48.1419 13.222C48.2819 13.0633 48.3893 12.886 48.4639 12.69C48.5479 12.4847 48.6039 12.2653 48.6319 12.032V12.018H47.1899C46.9006 12.018 46.6626 12.0553 46.4759 12.13C46.2986 12.1953 46.1679 12.2933 46.0839 12.424C45.9999 12.5547 45.9579 12.704 45.9579 12.872C45.9579 13.0587 45.9999 13.2127 46.0839 13.334C46.1679 13.4553 46.2893 13.5487 46.4479 13.614C46.6066 13.6793 46.7886 13.712 46.9939 13.712ZM52.3691 15V4.92H54.2591V15H52.3691ZM56.1015 15V7.944H57.7675L57.9215 8.882C58.1455 8.546 58.4395 8.28 58.8035 8.084C59.1768 7.87867 59.6015 7.776 60.0775 7.776C60.4322 7.776 60.7495 7.82267 61.0295 7.916C61.3095 8.00933 61.5568 8.14467 61.7715 8.322C61.9955 8.49933 62.1775 8.72333 62.3175 8.994C62.5788 8.61133 62.9195 8.31267 63.3395 8.098C63.7595 7.88333 64.2168 7.776 64.7115 7.776C65.3275 7.776 65.8408 7.902 66.2515 8.154C66.6622 8.39667 66.9702 8.75133 67.1755 9.218C67.3902 9.68467 67.4975 10.2587 67.4975 10.94V15H65.6215V11.108C65.6215 10.548 65.5095 10.1187 65.2855 9.82C65.0708 9.52133 64.7348 9.372 64.2775 9.372C63.9788 9.372 63.7128 9.44667 63.4795 9.596C63.2462 9.74533 63.0642 9.96 62.9335 10.24C62.8122 10.52 62.7515 10.856 62.7515 11.248V15H60.8615V11.108C60.8615 10.548 60.7495 10.1187 60.5255 9.82C60.3015 9.52133 59.9562 9.372 59.4895 9.372C59.2002 9.372 58.9388 9.44667 58.7055 9.596C58.4815 9.74533 58.3042 9.96 58.1735 10.24C58.0522 10.52 57.9915 10.856 57.9915 11.248V15H56.1015ZM71.6612 15.168C71.0732 15.168 70.5878 15.0747 70.2052 14.888C69.8225 14.692 69.5378 14.4353 69.3512 14.118C69.1738 13.7913 69.0852 13.432 69.0852 13.04C69.0852 12.6107 69.1925 12.2327 69.4072 11.906C69.6312 11.5793 69.9625 11.3227 70.4012 11.136C70.8492 10.9493 71.4092 10.856 72.0812 10.856H73.8312C73.8312 10.5107 73.7845 10.226 73.6912 10.002C73.5978 9.76867 73.4532 9.596 73.2572 9.484C73.0612 9.372 72.7998 9.316 72.4732 9.316C72.1185 9.316 71.8152 9.39533 71.5632 9.554C71.3205 9.70333 71.1712 9.93667 71.1152 10.254H69.2812C69.3278 9.75 69.4912 9.316 69.7712 8.952C70.0605 8.57867 70.4385 8.28933 70.9052 8.084C71.3812 7.87867 71.9085 7.776 72.4872 7.776C73.1498 7.776 73.7238 7.888 74.2092 8.112C74.6945 8.336 75.0678 8.658 75.3292 9.078C75.5905 9.498 75.7212 10.016 75.7212 10.632V15H74.1252L73.9152 13.922C73.8125 14.1087 73.6912 14.2767 73.5512 14.426C73.4112 14.5753 73.2478 14.706 73.0612 14.818C72.8745 14.93 72.6645 15.014 72.4312 15.07C72.1978 15.1353 71.9412 15.168 71.6612 15.168ZM72.1092 13.712C72.3518 13.712 72.5665 13.67 72.7532 13.586C72.9492 13.4927 73.1172 13.3713 73.2572 13.222C73.3972 13.0633 73.5045 12.886 73.5792 12.69C73.6632 12.4847 73.7192 12.2653 73.7472 12.032V12.018H72.3052C72.0158 12.018 71.7778 12.0553 71.5912 12.13C71.4138 12.1953 71.2832 12.2933 71.1992 12.424C71.1152 12.5547 71.0732 12.704 71.0732 12.872C71.0732 13.0587 71.1152 13.2127 71.1992 13.334C71.2832 13.4553 71.4045 13.5487 71.5632 13.614C71.7218 13.6793 71.9038 13.712 72.1092 13.712ZM80.5803 15C80.0856 15 79.6516 14.9253 79.2783 14.776C78.9143 14.6173 78.6296 14.3607 78.4243 14.006C78.2189 13.642 78.1163 13.1473 78.1163 12.522V9.526H76.9123V7.944H78.1163L78.3263 6.026H80.0063V7.944H81.8683V9.526H80.0063V12.55C80.0063 12.8673 80.0763 13.0867 80.2163 13.208C80.3563 13.3293 80.5943 13.39 80.9303 13.39H81.8543V15H80.5803ZM83.5009 15V7.944H85.3909V15H83.5009ZM84.4529 6.978C84.1169 6.978 83.8369 6.88 83.6129 6.684C83.3982 6.47867 83.2909 6.222 83.2909 5.914C83.2909 5.606 83.3982 5.354 83.6129 5.158C83.8369 4.95267 84.1169 4.85 84.4529 4.85C84.7982 4.85 85.0782 4.95267 85.2929 5.158C85.5169 5.354 85.6289 5.606 85.6289 5.914C85.6289 6.222 85.5169 6.47867 85.2929 6.684C85.0782 6.88 84.7982 6.978 84.4529 6.978ZM90.7167 15.168C90.0074 15.168 89.3774 15.0093 88.8267 14.692C88.276 14.3747 87.8467 13.9407 87.5387 13.39C87.2307 12.8393 87.0767 12.2093 87.0767 11.5C87.0767 10.772 87.2307 10.1327 87.5387 9.582C87.8467 9.022 88.276 8.58333 88.8267 8.266C89.3774 7.93933 90.0074 7.776 90.7167 7.776C91.622 7.776 92.3827 8.014 92.9987 8.49C93.6147 8.966 94.0067 9.61933 94.1747 10.45H92.1727C92.0887 10.1233 91.9114 9.86667 91.6407 9.68C91.3794 9.49333 91.0667 9.4 90.7027 9.4C90.376 9.4 90.082 9.484 89.8207 9.652C89.5687 9.81067 89.368 10.0487 89.2187 10.366C89.0787 10.674 89.0087 11.0427 89.0087 11.472C89.0087 11.7987 89.0507 12.0927 89.1347 12.354C89.2187 12.606 89.3354 12.8253 89.4847 13.012C89.634 13.1893 89.8114 13.3247 90.0167 13.418C90.2314 13.5113 90.46 13.558 90.7027 13.558C90.9454 13.558 91.1647 13.516 91.3607 13.432C91.566 13.348 91.7387 13.2313 91.8787 13.082C92.0187 12.9233 92.1167 12.732 92.1727 12.508H94.1747C94.0067 13.32 93.61 13.9687 92.9847 14.454C92.3687 14.93 91.6127 15.168 90.7167 15.168Z" fill="#101928"/>
</svg>
