<svg width="114" height="24" viewBox="0 0 114 24" fill="none" xmlns="http://www.w3.org/2000/svg">
<g clip-path="url(#clip0_1099_7668)">
<path fill-rule="evenodd" clip-rule="evenodd" d="M10.1551 6.58172L11.5271 3.78779C11.6975 3.44072 12.117 3.29752 12.4641 3.46795C12.8112 3.63837 12.9544 4.05788 12.7839 4.40495L11.6364 6.74193L13.3323 4.71836C13.5806 4.42202 14.0222 4.38312 14.3186 4.63148C14.6149 4.87984 14.6538 5.32141 14.4054 5.61775L12.8266 7.50169L14.9453 5.94973C15.2573 5.72126 15.6954 5.78891 15.9238 6.10083C16.1523 6.41276 16.0847 6.85085 15.7727 7.07932L13.7827 8.53696L16.2211 7.53147C16.5786 7.38407 16.9878 7.55436 17.1352 7.91181C17.2826 8.26927 17.1124 8.67853 16.7549 8.82593L14.4818 9.76326L17.0808 9.37038C17.4631 9.31258 17.8198 9.57565 17.8776 9.95796C17.9354 10.3403 17.6724 10.697 17.29 10.7548L14.8506 11.1236L17.4761 11.3633C17.8611 11.3985 18.1448 11.7391 18.1096 12.1242C18.0745 12.5092 17.7338 12.7929 17.3488 12.7577L14.8964 12.5338L17.3842 13.3918C17.7497 13.5179 17.9438 13.9164 17.8178 14.2819C17.6917 14.6475 17.2932 14.8416 16.9277 14.7155L14.6029 13.9137L16.8121 15.3397C17.1369 15.5494 17.2303 15.9827 17.0206 16.3076C16.8109 16.6324 16.3776 16.7258 16.0527 16.5161L13.9805 15.1785L15.7899 17.0955C16.0553 17.3767 16.0425 17.8198 15.7613 18.0852C15.4801 18.3506 15.037 18.3378 14.7716 18.0566L13.0813 16.2657L14.3784 18.5553C14.569 18.8917 14.4508 19.3189 14.1143 19.5095C13.7779 19.7001 13.3507 19.5819 13.1601 19.2454L11.9457 17.1018L12.6591 19.6364C12.7638 20.0086 12.5471 20.3952 12.1749 20.5C11.8027 20.6048 11.416 20.388 11.3113 20.0158L10.6436 17.6436L10.7313 20.2766C10.7441 20.6631 10.4413 20.9868 10.0549 20.9997C9.66841 21.0125 9.34471 20.7097 9.33184 20.3233L9.25001 17.8663L8.70786 20.4378C8.6281 20.8162 8.25674 21.0582 7.8784 20.9785C7.50006 20.8987 7.25802 20.5273 7.33779 20.149L7.84429 17.7465L6.70514 20.1116C6.53736 20.46 6.11895 20.6063 5.7706 20.4386C5.42224 20.2708 5.27586 19.8524 5.44365 19.504L6.51507 17.2795L4.83588 19.3143C4.58978 19.6126 4.14852 19.6548 3.8503 19.4087C3.55208 19.1626 3.50982 18.7214 3.75592 18.4231L5.32671 16.5197L3.21068 18.0944C2.9005 18.3253 2.46191 18.261 2.23107 17.9508C2.00023 17.6406 2.06455 17.202 2.37473 16.9712L4.3468 15.5036L1.9262 16.5233C1.56987 16.6734 1.15933 16.5062 1.00922 16.1499C0.859107 15.7936 1.02628 15.383 1.3826 15.2329L3.64973 14.2778L1.05227 14.6907C0.67041 14.7514 0.311648 14.491 0.250952 14.1092C0.190256 13.7273 0.450611 13.3686 0.832471 13.3079L3.26622 12.921L0.641784 12.7015C0.256475 12.6693 -0.0297524 12.3308 0.00247527 11.9455C0.0347029 11.5602 0.373182 11.274 0.75849 11.3062L3.21129 11.5113L0.716579 10.6721C0.350108 10.5488 0.152968 10.1518 0.276256 9.78529C0.399543 9.41882 0.796571 9.22168 1.16304 9.34497L3.49883 10.1308L1.27444 8.71877C0.948006 8.51156 0.851357 8.07894 1.05857 7.75251C1.26579 7.42607 1.6984 7.32942 2.02484 7.53663L4.10446 8.85673L2.28407 6.95717C2.01655 6.67801 2.02598 6.23484 2.30514 5.96731C2.5843 5.69978 3.02748 5.70922 3.295 5.98838L4.99907 7.76656L3.68351 5.48502C3.49037 5.15006 3.60534 4.72195 3.9403 4.52881C4.27526 4.33567 4.70337 4.45063 4.89651 4.78559L6.12535 6.91675L5.39378 4.39131C5.28619 4.01993 5.50004 3.63165 5.87143 3.52406C6.24281 3.41648 6.63109 3.63033 6.73868 4.00172L7.42359 6.36607L7.316 3.73626C7.3002 3.34993 7.60057 3.02393 7.9869 3.00813C8.37323 2.99232 8.69922 3.29269 8.71503 3.67902L8.81577 6.14139L9.33939 3.56077C9.41628 3.18184 9.78579 2.93699 10.1647 3.01387C10.5437 3.09076 10.7885 3.46028 10.7116 3.83921L10.1551 6.58172ZM9.05262 15.4974C10.9831 15.4974 12.5481 13.9325 12.5481 12.002C12.5481 10.0715 10.9831 8.50653 9.05262 8.50653C7.12214 8.50653 5.55717 10.0715 5.55717 12.002C5.55717 13.9325 7.12214 15.4974 9.05262 15.4974Z" fill="#601DED"/>
<path d="M34.0129 18.2016C32.9041 18.2016 31.9297 17.9552 31.0897 17.4624C30.2609 16.9584 29.6169 16.2584 29.1577 15.3624C28.6985 14.4552 28.4689 13.4024 28.4689 12.204C28.4689 10.9944 28.7041 9.9304 29.1745 9.012C29.6561 8.0824 30.3393 7.3544 31.2241 6.828C32.1089 6.3016 33.1617 6.0384 34.3825 6.0384C35.7713 6.0384 36.9193 6.3688 37.8265 7.0296C38.7449 7.6904 39.3385 8.6088 39.6073 9.7848H37.0705C36.9025 9.2696 36.5889 8.8664 36.1297 8.5752C35.6817 8.2728 35.0993 8.1216 34.3825 8.1216C33.6097 8.1216 32.9545 8.2896 32.4169 8.6256C31.8793 8.9616 31.4705 9.432 31.1905 10.0368C30.9217 10.6416 30.7873 11.364 30.7873 12.204C30.7873 13.0552 30.9273 13.7776 31.2073 14.3712C31.4873 14.9648 31.8849 15.4184 32.4001 15.732C32.9265 16.0344 33.5425 16.1856 34.2481 16.1856C35.2785 16.1856 36.0569 15.9112 36.5833 15.3624C37.1097 14.8024 37.4289 14.08 37.5409 13.1952H34.6513V11.4984H39.8089V18H37.7257L37.5409 16.5048C37.2945 16.8744 37.0089 17.188 36.6841 17.4456C36.3593 17.692 35.9785 17.8768 35.5417 18C35.1049 18.1344 34.5953 18.2016 34.0129 18.2016ZM45.8795 18.2016C45.0731 18.2016 44.3451 18.0168 43.6955 17.6472C43.0571 17.2664 42.5475 16.7456 42.1667 16.0848C41.7971 15.4128 41.6123 14.6512 41.6123 13.8C41.6123 12.9264 41.7971 12.1592 42.1667 11.4984C42.5475 10.8264 43.0627 10.3056 43.7123 9.936C44.3619 9.5664 45.0899 9.3816 45.8963 9.3816C46.7139 9.3816 47.4419 9.5664 48.0803 9.936C48.7299 10.3056 49.2395 10.8208 49.6091 11.4816C49.9899 12.1424 50.1803 12.9152 50.1803 13.8C50.1803 14.6624 49.9899 15.424 49.6091 16.0848C49.2395 16.7456 48.7299 17.2664 48.0803 17.6472C47.4307 18.0168 46.6971 18.2016 45.8795 18.2016ZM45.8795 16.236C46.2491 16.236 46.5795 16.1464 46.8707 15.9672C47.1731 15.788 47.4139 15.5136 47.5931 15.144C47.7723 14.7744 47.8619 14.3208 47.8619 13.7832C47.8619 13.2456 47.7723 12.7976 47.5931 12.4392C47.4251 12.0696 47.1899 11.7952 46.8875 11.616C46.5963 11.4256 46.2659 11.3304 45.8963 11.3304C45.5379 11.3304 45.2075 11.4256 44.9051 11.616C44.6027 11.7952 44.3619 12.0696 44.1827 12.4392C44.0035 12.7976 43.9139 13.2456 43.9139 13.7832C43.9139 14.3208 44.0035 14.7744 44.1827 15.144C44.3619 15.5136 44.5971 15.788 44.8883 15.9672C45.1907 16.1464 45.5211 16.236 45.8795 16.236ZM54.991 18.2016C54.2854 18.2016 53.703 18.0896 53.2438 17.8656C52.7846 17.6304 52.443 17.3224 52.219 16.9416C51.995 16.5496 51.883 16.124 51.883 15.6648C51.883 15.1496 52.0118 14.696 52.2694 14.304C52.5382 13.912 52.9414 13.604 53.479 13.38C54.0166 13.156 54.6886 13.044 55.495 13.044H57.595C57.595 12.6296 57.539 12.288 57.427 12.0192C57.315 11.7504 57.1414 11.5488 56.9062 11.4144C56.671 11.28 56.3574 11.2128 55.9654 11.2128C55.5398 11.2128 55.1758 11.308 54.8734 11.4984C54.571 11.6888 54.3862 11.9744 54.319 12.3552H52.1182C52.1742 11.7392 52.3702 11.2128 52.7062 10.776C53.0534 10.328 53.507 9.9864 54.067 9.7512C54.6382 9.5048 55.2766 9.3816 55.9822 9.3816C56.7774 9.3816 57.4662 9.516 58.0486 9.7848C58.631 10.0424 59.079 10.4232 59.3926 10.9272C59.7062 11.4312 59.863 12.0528 59.863 12.792V18H57.9478L57.6958 16.7064C57.5726 16.9304 57.427 17.132 57.259 17.3112C57.091 17.4904 56.895 17.6472 56.671 17.7816C56.447 17.916 56.195 18.0168 55.915 18.084C55.635 18.1624 55.327 18.2016 54.991 18.2016ZM55.5286 16.4544C55.8198 16.4544 56.0774 16.404 56.3014 16.3032C56.5366 16.1912 56.7382 16.0456 56.9062 15.8664C57.0742 15.676 57.203 15.4632 57.2926 15.228C57.3934 14.9816 57.4606 14.724 57.4942 14.4552V14.4384H55.7638C55.4166 14.4384 55.131 14.4832 54.907 14.5728C54.6942 14.6512 54.5374 14.7688 54.4366 14.9256C54.3358 15.0824 54.2854 15.2616 54.2854 15.4632C54.2854 15.676 54.3358 15.8552 54.4366 16.0008C54.5374 16.1464 54.683 16.2584 54.8734 16.3368C55.0638 16.4152 55.2822 16.4544 55.5286 16.4544ZM61.9623 18V5.904H64.2303V18H61.9623ZM66.4248 18V9.5832H68.4072L68.592 10.692C68.8608 10.2888 69.2192 9.9696 69.6672 9.7344C70.1152 9.4992 70.6248 9.3816 71.196 9.3816C71.6216 9.3816 72.0024 9.4376 72.3384 9.5496C72.6856 9.6504 72.988 9.8072 73.2456 10.02C73.5032 10.2328 73.7216 10.5016 73.9008 10.8264C74.2144 10.3784 74.6232 10.0256 75.1272 9.768C75.6312 9.5104 76.18 9.3816 76.7736 9.3816C77.5128 9.3816 78.1288 9.5272 78.6216 9.8184C79.1256 10.1096 79.5008 10.5408 79.7472 11.112C80.0048 11.672 80.1336 12.3608 80.1336 13.1784V18H77.8824V13.38C77.8824 12.708 77.748 12.1928 77.4792 11.8344C77.2104 11.4648 76.8016 11.28 76.2528 11.28C75.8944 11.28 75.5752 11.3752 75.2952 11.5656C75.0152 11.7448 74.7968 12.0024 74.64 12.3384C74.4832 12.6744 74.4048 13.0776 74.4048 13.548V18H72.1536V13.38C72.1536 12.708 72.0192 12.1928 71.7504 11.8344C71.4816 11.4648 71.0616 11.28 70.4904 11.28C70.1432 11.28 69.8296 11.3696 69.5496 11.5488C69.2808 11.728 69.068 11.9912 68.9112 12.3384C68.7656 12.6744 68.6928 13.0776 68.6928 13.548V18H66.4248ZM85.0964 18.2016C84.3908 18.2016 83.8084 18.0896 83.3492 17.8656C82.89 17.6304 82.5484 17.3224 82.3244 16.9416C82.1004 16.5496 81.9884 16.124 81.9884 15.6648C81.9884 15.1496 82.1172 14.696 82.3748 14.304C82.6436 13.912 83.0468 13.604 83.5844 13.38C84.122 13.156 84.794 13.044 85.6004 13.044H87.7004C87.7004 12.6296 87.6444 12.288 87.5324 12.0192C87.4204 11.7504 87.2468 11.5488 87.0116 11.4144C86.7764 11.28 86.4628 11.2128 86.0708 11.2128C85.6452 11.2128 85.2812 11.308 84.9788 11.4984C84.6764 11.6888 84.4916 11.9744 84.4244 12.3552H82.2236C82.2796 11.7392 82.4756 11.2128 82.8116 10.776C83.1588 10.328 83.6124 9.9864 84.1724 9.7512C84.7436 9.5048 85.382 9.3816 86.0876 9.3816C86.8828 9.3816 87.5716 9.516 88.154 9.7848C88.7364 10.0424 89.1844 10.4232 89.498 10.9272C89.8116 11.4312 89.9684 12.0528 89.9684 12.792V18H88.0532L87.8012 16.7064C87.678 16.9304 87.5324 17.132 87.3644 17.3112C87.1964 17.4904 87.0004 17.6472 86.7764 17.7816C86.5524 17.916 86.3004 18.0168 86.0204 18.084C85.7404 18.1624 85.4324 18.2016 85.0964 18.2016ZM85.634 16.4544C85.9252 16.4544 86.1828 16.404 86.4068 16.3032C86.642 16.1912 86.8436 16.0456 87.0116 15.8664C87.1796 15.676 87.3084 15.4632 87.398 15.228C87.4988 14.9816 87.566 14.724 87.5996 14.4552V14.4384H85.8692C85.522 14.4384 85.2364 14.4832 85.0124 14.5728C84.7996 14.6512 84.6428 14.7688 84.542 14.9256C84.4412 15.0824 84.3908 15.2616 84.3908 15.4632C84.3908 15.676 84.4412 15.8552 84.542 16.0008C84.6428 16.1464 84.7884 16.2584 84.9788 16.3368C85.1692 16.4152 85.3876 16.4544 85.634 16.4544ZM95.7662 18C95.1726 18 94.6518 17.9104 94.2038 17.7312C93.767 17.5408 93.4254 17.2328 93.179 16.8072C92.9326 16.3704 92.8094 15.7768 92.8094 15.0264V11.4648H91.3645V9.5832H92.8094L93.0614 7.2816H95.0774V9.5832H97.3118V11.4648H95.0774V15.06C95.0774 15.4408 95.1614 15.704 95.3294 15.8496C95.4974 15.9952 95.783 16.068 96.1862 16.068H97.2782V18H95.7662ZM99.2549 18V9.5832H101.523V18H99.2549ZM100.397 8.4072C99.9829 8.4072 99.6469 8.284 99.3893 8.0376C99.1317 7.7912 99.0029 7.4832 99.0029 7.1136C99.0029 6.744 99.1317 6.4416 99.3893 6.2064C99.6469 5.96 99.9829 5.8368 100.397 5.8368C100.812 5.8368 101.148 5.96 101.405 6.2064C101.674 6.4416 101.809 6.744 101.809 7.1136C101.809 7.4832 101.674 7.7912 101.405 8.0376C101.148 8.284 100.812 8.4072 100.397 8.4072ZM107.897 18.2016C107.046 18.2016 106.29 18.0168 105.629 17.6472C104.969 17.2664 104.453 16.7456 104.084 16.0848C103.714 15.424 103.529 14.668 103.529 13.8168C103.529 12.9432 103.714 12.176 104.084 11.5152C104.453 10.8432 104.969 10.3224 105.629 9.9528C106.29 9.572 107.046 9.3816 107.897 9.3816C108.984 9.3816 109.891 9.6672 110.619 10.2384C111.358 10.7984 111.829 11.5712 112.03 12.5568H109.628C109.527 12.1648 109.32 11.8624 109.006 11.6496C108.693 11.4256 108.317 11.3136 107.881 11.3136C107.489 11.3136 107.136 11.4144 106.822 11.616C106.52 11.8064 106.279 12.0864 106.1 12.456C105.921 12.8256 105.831 13.268 105.831 13.7832C105.831 14.1752 105.881 14.5224 105.982 14.8248C106.094 15.1272 106.24 15.3904 106.419 15.6144C106.598 15.8272 106.811 15.9896 107.057 16.1016C107.315 16.2136 107.589 16.2696 107.881 16.2696C108.172 16.2696 108.435 16.2248 108.67 16.1352C108.905 16.0344 109.107 15.8888 109.275 15.6984C109.454 15.508 109.572 15.2784 109.628 15.0096H112.03C111.829 15.984 111.358 16.7624 110.619 17.3448C109.88 17.916 108.973 18.2016 107.897 18.2016Z" fill="white"/>
</g>
<defs>
<clipPath id="clip0_1099_7668">
<rect width="113.713" height="24" rx="4.8" fill="white"/>
</clipPath>
</defs>
</svg>
