<svg width="32" height="32" viewBox="0 0 32 32" fill="none" xmlns="http://www.w3.org/2000/svg">
<rect width="32" height="32" rx="4" fill="#25D366"/>
<path d="M6 26L7.41254 20.8642C6.5409 19.3608 6.08289 17.6567 6.08373 15.9092C6.08624 10.4458 10.5533 6 16.0419 6C18.7053 6.00083 21.2056 7.03333 23.0862 8.90667C24.9659 10.78 26.0008 13.27 26 15.9183C25.9975 21.3825 21.5304 25.8283 16.0419 25.8283C14.3756 25.8275 12.7337 25.4117 11.2792 24.6217L6 26ZM11.5237 22.8275C12.9271 23.6567 14.2668 24.1533 16.0385 24.1542C20.6002 24.1542 24.3162 20.4592 24.3187 15.9167C24.3204 11.365 20.622 7.675 16.0452 7.67333C11.4802 7.67333 7.76673 11.3683 7.76505 15.91C7.76421 17.7642 8.31014 19.1525 9.22699 20.605L8.39052 23.645L11.5237 22.8275ZM21.0582 18.2742C20.9962 18.1708 20.8304 18.1092 20.5809 17.985C20.3322 17.8608 19.1089 17.2617 18.8803 17.1792C18.6526 17.0967 18.4868 17.055 18.3202 17.3033C18.1544 17.5508 17.6771 18.1092 17.5323 18.2742C17.3874 18.4392 17.2417 18.46 16.993 18.3358C16.7444 18.2117 15.9422 17.9508 14.9919 17.1067C14.2525 16.45 13.7527 15.6392 13.6078 15.3908C13.4629 15.1433 13.5927 15.0092 13.7167 14.8858C13.8289 14.775 13.9653 14.5967 14.0901 14.4517C14.2165 14.3083 14.2576 14.205 14.3413 14.0392C14.4242 13.8742 14.3832 13.7292 14.3204 13.605C14.2576 13.4817 13.7602 12.2625 13.5534 11.7667C13.3507 11.2842 13.1456 11.3492 12.9932 11.3417L12.516 11.3333C12.3502 11.3333 12.0805 11.395 11.8528 11.6433C11.6251 11.8917 10.982 12.49 10.982 13.7092C10.982 14.9283 11.8737 16.1058 11.9977 16.2708C12.1224 16.4358 13.7518 18.9375 16.2478 20.01C16.8415 20.265 17.3054 20.4175 17.6662 20.5317C18.2624 20.72 18.805 20.6933 19.2337 20.63C19.7118 20.5592 20.7057 20.0308 20.9133 19.4525C21.121 18.8733 21.121 18.3775 21.0582 18.2742Z" fill="white"/>
</svg>
