<svg width="153" height="35" viewBox="0 0 153 35" fill="none" xmlns="http://www.w3.org/2000/svg">
<path d="M40.2237 26.2868C38.6464 26.2868 37.2682 25.9363 36.0892 25.2352C34.9102 24.5183 33.9941 23.5225 33.3409 22.2479C32.6877 20.9574 32.3611 19.4598 32.3611 17.755C32.3611 16.0343 32.6957 14.5208 33.3648 13.2143C34.034 11.8919 34.9979 10.8563 36.2565 10.1075C37.5152 9.35869 39.0208 8.98428 40.7733 8.98428C42.733 8.98428 44.3581 9.45428 45.6486 10.3943C46.9551 11.3343 47.7995 12.6407 48.1819 14.3136H44.5732C44.3342 13.5808 43.8881 13.0072 43.2349 12.593C42.5976 12.1628 41.7691 11.9477 40.7494 11.9477C39.666 11.9477 38.742 12.1867 37.9772 12.6646C37.2125 13.1426 36.6309 13.8118 36.2326 14.6721C35.8343 15.5325 35.6352 16.5601 35.6352 17.755C35.6352 18.9659 35.8343 19.9935 36.2326 20.8379C36.6309 21.6823 37.1965 22.3276 37.9294 22.7737C38.6782 23.2039 39.5545 23.419 40.5583 23.419C42.024 23.419 43.1313 23.0286 43.8801 22.2479C44.6449 21.4513 45.099 20.4237 45.2424 19.165H41.1318V16.7513H48.4926V26H45.5052L45.2663 23.873C44.9157 24.3988 44.5015 24.8449 44.0235 25.2114C43.5615 25.5619 43.0198 25.8247 42.3984 26C41.7771 26.1912 41.0522 26.2868 40.2237 26.2868ZM57.0575 26.2868C55.9263 26.2868 54.8987 26.0239 53.9746 25.4981C53.0665 24.9724 52.3416 24.2395 51.7999 23.2995C51.2582 22.3595 50.9873 21.284 50.9873 20.0732C50.9873 18.8464 51.2582 17.771 51.7999 16.8469C52.3416 15.9069 53.0745 15.174 53.9985 14.6482C54.9226 14.1225 55.9502 13.8596 57.0814 13.8596C58.2286 13.8596 59.2642 14.1225 60.1882 14.6482C61.1123 15.174 61.8372 15.9069 62.363 16.8469C62.9047 17.771 63.1756 18.8464 63.1756 20.0732C63.1756 21.3 62.9047 22.3834 62.363 23.3234C61.8213 24.2474 61.0884 24.9724 60.1643 25.4981C59.2562 26.0239 58.2206 26.2868 57.0575 26.2868ZM57.0814 23.4907C57.5913 23.4907 58.0533 23.3632 58.4676 23.1083C58.8977 22.8534 59.2403 22.471 59.4952 21.9612C59.766 21.4513 59.9015 20.822 59.9015 20.0732C59.9015 19.3084 59.774 18.6791 59.5191 18.1852C59.2642 17.6754 58.9216 17.293 58.4915 17.0381C58.0772 16.7672 57.6152 16.6318 57.1053 16.6318C56.5955 16.6318 56.1255 16.7672 55.6953 17.0381C55.2652 17.293 54.9226 17.6754 54.6677 18.1852C54.4128 18.6791 54.2853 19.3084 54.2853 20.0732C54.2853 20.822 54.4128 21.4513 54.6677 21.9612C54.9226 22.471 55.2572 22.8534 55.6714 23.1083C56.1016 23.3632 56.5716 23.4907 57.0814 23.4907ZM69.9961 26.2868C68.9924 26.2868 68.156 26.1275 67.4868 25.8088C66.8336 25.4902 66.3476 25.06 66.029 24.5183C65.7103 23.9607 65.551 23.3552 65.551 22.702C65.551 21.9851 65.7342 21.3557 66.1007 20.814C66.4831 20.2564 67.0566 19.8183 67.8214 19.4996C68.5861 19.181 69.55 19.0216 70.7131 19.0216H73.7004C73.7004 18.4481 73.6128 17.9781 73.4375 17.6116C73.2782 17.2293 73.0233 16.9504 72.6728 16.7752C72.3382 16.584 71.908 16.4884 71.3823 16.4884C70.7609 16.4884 70.2272 16.6238 69.7811 16.8947C69.3509 17.1655 69.088 17.5798 68.9924 18.1374H65.8378C65.9334 17.2611 66.2281 16.5043 66.7221 15.867C67.216 15.2298 67.8692 14.7358 68.6817 14.3853C69.4943 14.0348 70.3945 13.8596 71.3823 13.8596C72.5135 13.8596 73.4933 14.0508 74.3218 14.4331C75.1502 14.7996 75.7875 15.3492 76.2336 16.0821C76.6957 16.7991 76.9267 17.6754 76.9267 18.711V26H74.2023L73.8438 24.1598C73.6845 24.4785 73.4774 24.7652 73.2224 25.0202C72.9835 25.2751 72.7046 25.4981 72.386 25.6893C72.0673 25.8805 71.7089 26.0239 71.3106 26.1195C70.9123 26.231 70.4741 26.2868 69.9961 26.2868ZM70.7609 23.8013C71.1911 23.8013 71.5655 23.7296 71.8841 23.5863C72.2187 23.4269 72.4975 23.2198 72.7206 22.9649C72.9596 22.71 73.1428 22.4152 73.2702 22.0806C73.4136 21.7461 73.5092 21.3876 73.557 21.0052H71.0716C70.5777 21.0052 70.1714 21.0689 69.8528 21.1964C69.55 21.3079 69.327 21.4752 69.1836 21.6983C69.0402 21.9054 68.9685 22.1523 68.9685 22.4391C68.9685 22.7259 69.0402 22.9729 69.1836 23.18C69.327 23.3871 69.5341 23.5464 69.805 23.6579C70.0758 23.7535 70.3945 23.8013 70.7609 23.8013ZM79.8192 26V8.79309H83.0455V26H79.8192ZM86.1439 26V14.1464H88.9878L89.2507 15.7476C89.633 15.1581 90.1349 14.696 90.7563 14.3614C91.3936 14.0269 92.1264 13.8596 92.9549 13.8596C93.5604 13.8596 94.1021 13.9392 94.58 14.0986C95.0739 14.2419 95.5041 14.473 95.8705 14.7916C96.2529 15.0943 96.5716 15.4767 96.8265 15.9387C97.2726 15.3014 97.8541 14.7996 98.5711 14.4331C99.304 14.0508 100.101 13.8596 100.961 13.8596C101.997 13.8596 102.873 14.0747 103.59 14.5048C104.307 14.9191 104.848 15.5325 105.215 16.345C105.581 17.1576 105.765 18.1613 105.765 19.3562V26H102.562V19.643C102.562 18.6552 102.371 17.8984 101.989 17.3726C101.622 16.8469 101.033 16.584 100.22 16.584C99.6943 16.584 99.2323 16.7194 98.834 16.9903C98.4356 17.2452 98.125 17.6196 97.9019 18.1135C97.6789 18.5915 97.5673 19.181 97.5673 19.882V26H94.3649V19.643C94.3649 18.6552 94.1738 17.8984 93.7914 17.3726C93.409 16.8469 92.8036 16.584 91.9751 16.584C91.4653 16.584 91.0112 16.7194 90.6129 16.9903C90.2305 17.2452 89.9278 17.6196 89.7047 18.1135C89.4817 18.5915 89.3702 19.181 89.3702 19.882V26H86.1439ZM112.775 26.2868C111.772 26.2868 110.935 26.1275 110.266 25.8088C109.613 25.4902 109.127 25.06 108.808 24.5183C108.49 23.9607 108.33 23.3552 108.33 22.702C108.33 21.9851 108.513 21.3557 108.88 20.814C109.262 20.2564 109.836 19.8183 110.601 19.4996C111.365 19.181 112.329 19.0216 113.492 19.0216H116.48C116.48 18.4481 116.392 17.9781 116.217 17.6116C116.057 17.2293 115.802 16.9504 115.452 16.7752C115.117 16.584 114.687 16.4884 114.161 16.4884C113.54 16.4884 113.006 16.6238 112.56 16.8947C112.13 17.1655 111.867 17.5798 111.772 18.1374H108.617C108.713 17.2611 109.007 16.5043 109.501 15.867C109.995 15.2298 110.648 14.7358 111.461 14.3853C112.273 14.0348 113.174 13.8596 114.161 13.8596C115.293 13.8596 116.273 14.0508 117.101 14.4331C117.929 14.7996 118.567 15.3492 119.013 16.0821C119.475 16.7991 119.706 17.6754 119.706 18.711V26H116.981L116.623 24.1598C116.464 24.4785 116.257 24.7652 116.002 25.0202C115.763 25.2751 115.484 25.4981 115.165 25.6893C114.847 25.8805 114.488 26.0239 114.09 26.1195C113.691 26.231 113.253 26.2868 112.775 26.2868ZM113.54 23.8013C113.97 23.8013 114.345 23.7296 114.663 23.5863C114.998 23.4269 115.277 23.2198 115.5 22.9649C115.739 22.71 115.922 22.4152 116.049 22.0806C116.193 21.7461 116.288 21.3876 116.336 21.0052H113.851C113.357 21.0052 112.951 21.0689 112.632 21.1964C112.329 21.3079 112.106 21.4752 111.963 21.6983C111.819 21.9054 111.748 22.1523 111.748 22.4391C111.748 22.7259 111.819 22.9729 111.963 23.18C112.106 23.3871 112.313 23.5464 112.584 23.6579C112.855 23.7535 113.174 23.8013 113.54 23.8013ZM127.836 26C126.991 26 126.25 25.8725 125.613 25.6176C124.992 25.3468 124.506 24.9086 124.155 24.3032C123.805 23.6818 123.629 22.8374 123.629 21.77V16.8469H121.598V14.1464H123.629L123.988 10.9201H126.856V14.1464H130.01V16.8469H126.856V21.8178C126.856 22.3595 126.975 22.7339 127.214 22.941C127.453 23.1481 127.859 23.2517 128.433 23.2517H129.939V26H127.836ZM132.729 26V14.1464H135.956V26H132.729ZM134.331 12.4257C133.757 12.4257 133.279 12.2504 132.897 11.8999C132.53 11.5494 132.347 11.1192 132.347 10.6094C132.347 10.0836 132.53 9.65344 132.897 9.31886C133.279 8.96835 133.757 8.79309 134.331 8.79309C134.92 8.79309 135.398 8.96835 135.765 9.31886C136.147 9.65344 136.338 10.0836 136.338 10.6094C136.338 11.1192 136.147 11.5494 135.765 11.8999C135.398 12.2504 134.92 12.4257 134.331 12.4257ZM145 26.2868C143.79 26.2868 142.714 26.0239 141.774 25.4981C140.834 24.9564 140.093 24.2235 139.552 23.2995C139.026 22.3595 138.763 21.284 138.763 20.0732C138.763 18.8623 139.026 17.7949 139.552 16.8708C140.093 15.9308 140.834 15.1979 141.774 14.6721C142.714 14.1304 143.79 13.8596 145 13.8596C146.53 13.8596 147.82 14.2579 148.872 15.0545C149.923 15.8511 150.585 16.9504 150.856 18.3525H147.462C147.319 17.8108 147.024 17.3886 146.578 17.0859C146.132 16.7672 145.598 16.6079 144.977 16.6079C144.435 16.6079 143.941 16.7513 143.495 17.0381C143.049 17.3089 142.698 17.7072 142.443 18.233C142.188 18.7428 142.061 19.3562 142.061 20.0732C142.061 20.6149 142.133 21.1008 142.276 21.531C142.435 21.9452 142.642 22.3037 142.897 22.6064C143.168 22.9091 143.479 23.1401 143.829 23.2995C144.18 23.4588 144.562 23.5385 144.977 23.5385C145.391 23.5385 145.765 23.4747 146.1 23.3473C146.434 23.2039 146.721 23.0047 146.96 22.7498C147.199 22.479 147.366 22.1603 147.462 21.7939H150.856C150.585 23.164 149.923 24.2554 148.872 25.068C147.82 25.8805 146.53 26.2868 145 26.2868Z" fill="#601DED"/>
<path fill-rule="evenodd" clip-rule="evenodd" d="M13.055 10.541L14.8213 6.94406C15.0404 6.4979 15.5797 6.31381 16.0258 6.5329C16.472 6.75198 16.6561 7.29128 16.437 7.73745L14.966 10.7332L17.1395 8.13973C17.4588 7.75877 18.0264 7.70876 18.4074 8.02804C18.7883 8.34731 18.8383 8.91496 18.5191 9.29592L16.4856 11.7222L19.2154 9.72273C19.6164 9.42902 20.1796 9.51598 20.4733 9.91698C20.767 10.318 20.6801 10.8811 20.2791 11.1749L17.7251 13.0455L20.8534 11.7556C21.3129 11.5661 21.839 11.785 22.0285 12.2445C22.218 12.7041 21.9991 13.2302 21.5396 13.4197L18.6129 14.6265L21.9587 14.1207C22.4501 14.0464 22.9088 14.3846 22.9831 14.8761C23.0574 15.3676 22.7192 15.8262 22.2277 15.9005L19.0975 16.3737L22.4673 16.6813C22.9623 16.7265 23.3269 17.1644 23.2817 17.6594C23.2365 18.1544 22.7986 18.5191 22.3036 18.4739L19.151 18.1861L22.3499 19.2893C22.8197 19.4514 23.0693 19.9637 22.9072 20.4336C22.7452 20.9035 22.2329 21.153 21.763 20.991L18.7702 19.9588L21.6132 21.7939C22.0308 22.0634 22.1508 22.6205 21.8812 23.0381C21.6117 23.4557 21.0546 23.5757 20.637 23.3062L17.9772 21.5893L20.2998 24.0501C20.641 24.4116 20.6246 24.9812 20.2631 25.3224C19.9016 25.6635 19.332 25.6471 18.9908 25.2856L16.8179 22.9834L18.4858 25.9275C18.7308 26.36 18.5788 26.9092 18.1464 27.1542C17.7139 27.3992 17.1647 27.2473 16.9197 26.8148L15.3592 24.0604L16.276 27.3176C16.4107 27.796 16.132 28.2931 15.6535 28.4278C15.175 28.5624 14.678 28.2837 14.5433 27.8053L13.6856 24.7579L13.7982 28.1398C13.8148 28.6366 13.4255 29.0527 12.9287 29.0693C12.4319 29.0858 12.0158 28.6965 11.9992 28.1997L11.8939 25.0357L11.1958 28.3467C11.0933 28.8331 10.6159 29.1443 10.1295 29.0417C9.64314 28.9392 9.33199 28.4618 9.43452 27.9754L10.0876 24.8778L8.61924 27.9263C8.40355 28.3742 7.86567 28.5623 7.41785 28.3467C6.97003 28.131 6.78185 27.5931 6.99754 27.1453L8.37129 24.2931L6.21755 26.903C5.90118 27.2863 5.33393 27.3406 4.95055 27.0243C4.56718 26.7079 4.51286 26.1407 4.82923 25.7573L6.8442 23.3156L4.12965 25.3358C3.7309 25.6325 3.16708 25.5498 2.87032 25.1511C2.57357 24.7523 2.65626 24.1885 3.05501 23.8918L5.59466 22.0017L2.47628 23.3154C2.01822 23.5084 1.49044 23.2935 1.29747 22.8354C1.1045 22.3773 1.31941 21.8496 1.77748 21.6566L4.69492 20.4276L1.35309 20.9587C0.862201 21.0368 0.401 20.7021 0.322973 20.2112C0.244947 19.7203 0.579641 19.2591 1.07053 19.1811L4.19704 18.6841L0.825035 18.4021C0.329708 18.3606 -0.0382477 17.9255 0.00318204 17.4302C0.0446118 16.9349 0.479739 16.5669 0.975065 16.6083L4.1298 16.8722L0.922648 15.7933C0.451537 15.6348 0.198108 15.1244 0.356598 14.6533C0.515088 14.1822 1.02548 13.9287 1.49659 14.0872L4.4971 15.0966L1.64029 13.2832C1.22064 13.0168 1.0964 12.4607 1.36278 12.041C1.62916 11.6214 2.1853 11.4971 2.60495 11.7635L5.27769 13.4601L2.93645 11.017C2.59254 10.6582 2.60466 10.0885 2.96353 9.74454C3.3224 9.40063 3.89212 9.41276 4.23603 9.77163L6.42643 12.0573L4.73617 9.12589C4.48788 8.69529 4.63567 8.14494 5.06627 7.89666C5.49687 7.64837 6.04722 7.79616 6.29551 8.22676L7.87686 10.9693L6.93534 7.71911C6.79704 7.24168 7.07196 6.74253 7.54938 6.60423C8.02681 6.46593 8.52596 6.74084 8.66426 7.21827L9.54512 10.259L9.4068 6.87806C9.38648 6.38142 9.77261 5.96234 10.2693 5.94202C10.7659 5.9217 11.185 6.30784 11.2053 6.80448L11.3347 9.96759L12.0076 6.65138C12.1064 6.16425 12.5814 5.84948 13.0686 5.94833C13.5557 6.04717 13.8705 6.52219 13.7716 7.00932L13.055 10.541ZM11.642 21.9954C14.1237 21.9954 16.1355 19.9836 16.1355 17.5019C16.1355 15.0202 14.1237 13.0084 11.642 13.0084C9.16026 13.0084 7.14844 15.0202 7.14844 17.5019C7.14844 19.9836 9.16026 21.9954 11.642 21.9954Z" fill="#601DED"/>
</svg>

